<?xml version="1.0" encoding="utf-8"?>
<!-- Generator: Adobe Illustrator 17.1.0, SVG Export Plug-In . SVG Version: 6.00 Build 0)  -->
<!DOCTYPE svg PUBLIC "-//W3C//DTD SVG 1.1//EN" "http://www.w3.org/Graphics/SVG/1.1/DTD/svg11.dtd">
<svg version="1.1" id="Layer_1" xmlns="http://www.w3.org/2000/svg" xmlns:xlink="http://www.w3.org/1999/xlink" x="0px" y="0px"
	 viewBox="0 0 100 100" enable-background="new 0 0 100 100" xml:space="preserve">
<g>
	<path fill="#FFFFFF" d="M58.2,43.6l-0.4,5.7h-5.6v19.3h-7.4V49.4H41v-5.7h3.7v-4.3v-1.2c0,0-0.3-6.4,7.4-6.7C55.9,31.2,59,32,59,32
		l-0.8,5.7c0,0-6-1.9-6,1.8v4.2L58.2,43.6L58.2,43.6z"/>
	<path fill="#FFFFFF" d="M50,91.8C27,91.8,8.2,73,8.2,50S27,8.2,50,8.2C73,8.2,91.8,27,91.8,50S73,91.8,50,91.8z M50,14
		c-19.9,0-36,16.2-36,36s16.2,36,36,36c19.9,0,36-16.2,36-36S69.9,14,50,14z"/>
</g>
</svg>
