<?xml version="1.0" encoding="utf-8"?>
<!-- Generator: Adobe Illustrator 17.1.0, SVG Export Plug-In . SVG Version: 6.00 Build 0)  -->
<!DOCTYPE svg PUBLIC "-//W3C//DTD SVG 1.1//EN" "http://www.w3.org/Graphics/SVG/1.1/DTD/svg11.dtd">
<svg version="1.1" id="Layer_1" xmlns="http://www.w3.org/2000/svg" xmlns:xlink="http://www.w3.org/1999/xlink" x="0px" y="0px"
	 viewBox="0 0 100 100" enable-background="new 0 0 100 100" xml:space="preserve">
<path fill="#FFFFFF" d="M68.1,37.5c-0.5-1.3-1.1-2.3-2.2-3.4c-1.1-1.1-2.1-1.7-3.4-2.2c-1.2-0.5-2.6-0.8-4.6-0.9
	c-2-0.1-2.7-0.1-7.9-0.1s-5.9,0-7.9,0.1c-2,0.1-3.4,0.4-4.6,0.9c-1.3,0.5-2.3,1.1-3.4,2.2c-1.1,1.1-1.7,2.1-2.2,3.4
	c-0.5,1.2-0.8,2.6-0.9,4.6c-0.1,2-0.1,2.7-0.1,7.9s0,5.9,0.1,7.9c0.1,2,0.4,3.4,0.9,4.6c0.5,1.3,1.1,2.3,2.2,3.4
	c1.1,1.1,2.1,1.7,3.4,2.2c1.2,0.5,2.6,0.8,4.6,0.9c2,0.1,2.7,0.1,7.9,0.1s5.9,0,7.9-0.1c2-0.1,3.4-0.4,4.6-0.9
	c1.3-0.5,2.3-1.1,3.4-2.2c1.1-1.1,1.7-2.1,2.2-3.4c0.5-1.2,0.8-2.6,0.9-4.6c0.1-2,0.1-2.7,0.1-7.9s0-5.9-0.1-7.9
	C68.9,40.1,68.6,38.7,68.1,37.5z M65.6,57.7c-0.1,1.9-0.4,2.9-0.7,3.6c-0.3,0.9-0.8,1.5-1.4,2.2c-0.7,0.7-1.3,1.1-2.2,1.4
	c-0.7,0.3-1.7,0.6-3.6,0.7c-2,0.1-2.6,0.1-7.7,0.1c-5.1,0-5.7,0-7.7-0.1c-1.9-0.1-2.9-0.4-3.6-0.7c-0.9-0.3-1.5-0.8-2.2-1.4
	c-0.7-0.7-1.1-1.3-1.4-2.2c-0.3-0.7-0.6-1.7-0.7-3.6c-0.1-2-0.1-2.6-0.1-7.7c0-5.1,0-5.7,0.1-7.7c0.1-1.9,0.4-2.9,0.7-3.6
	c0.3-0.9,0.8-1.5,1.4-2.2c0.7-0.7,1.3-1.1,2.2-1.4c0.7-0.3,1.7-0.6,3.6-0.7c2-0.1,2.6-0.1,7.7-0.1c5.1,0,5.7,0,7.7,0.1
	c1.9,0.1,2.9,0.4,3.6,0.7c0.9,0.3,1.5,0.8,2.2,1.4c0.7,0.7,1.1,1.3,1.4,2.2c0.3,0.7,0.6,1.7,0.7,3.6c0.1,2,0.1,2.6,0.1,7.7
	C65.7,55.1,65.7,55.7,65.6,57.7z M50,40.2c-5.4,0-9.8,4.4-9.8,9.8s4.4,9.8,9.8,9.8c5.4,0,9.8-4.4,9.8-9.8S55.4,40.2,50,40.2z
	 M50,56.4c-3.5,0-6.4-2.9-6.4-6.4c0-3.5,2.9-6.4,6.4-6.4c3.5,0,6.4,2.9,6.4,6.4S53.5,56.4,50,56.4z M62.5,39.8c0,1.3-1,2.3-2.3,2.3
	s-2.3-1-2.3-2.3c0-1.3,1-2.3,2.3-2.3S62.5,38.5,62.5,39.8z M50,8.2C27,8.2,8.2,27,8.2,50S27,91.8,50,91.8C73,91.8,91.8,73,91.8,50
	S73,8.2,50,8.2z M50,86c-19.9,0-36-16.2-36-36s16.2-36,36-36c19.9,0,36,16.2,36,36S69.9,86,50,86z"/>
</svg>
